<svg xmlns="http://www.w3.org/2000/svg" xmlns:xlink="http://www.w3.org/1999/xlink" contentStyleType="text/css" data-diagram-type="DESCRIPTION" height="1106px" preserveAspectRatio="none" style="width:2227px;height:1106px;background:#FFFFFF;" version="1.1" viewBox="0 0 2227 1106" width="2227px" zoomAndPan="magnify"><defs/><g><!--cluster Frontend (React.js)--><g id="cluster_Frontend (React.js)"><path d="M8.5,6 L162.5635,6 A3.75,3.75 0 0 1 165.0635,8.5 L172.0635,28.2969 L1317.92,28.2969 A2.5,2.5 0 0 1 1320.42,30.7969 L1320.42,491.5 A2.5,2.5 0 0 1 1317.92,494 L8.5,494 A2.5,2.5 0 0 1 6,491.5 L6,8.5 A2.5,2.5 0 0 1 8.5,6 " fill="none" style="stroke:#000000;stroke-width:1.5;"/><line style="stroke:#000000;stroke-width:1.5;" x1="6" x2="172.0635" y1="28.2969" y2="28.2969"/><text fill="#000000" font-family="sans-serif" font-size="14" font-weight="bold" lengthAdjust="spacing" textLength="153.0635" x="10" y="20.9951">Frontend (React.js)</text></g><!--cluster Components--><g id="cluster_Components"><path d="M1063.65,49 L1163.2242,49 A3.75,3.75 0 0 1 1165.7242,51.5 L1172.7242,71.2969 L1293.92,71.2969 A2.5,2.5 0 0 1 1296.42,73.7969 L1296.42,467.5 A2.5,2.5 0 0 1 1293.92,470 L1063.65,470 A2.5,2.5 0 0 1 1061.15,467.5 L1061.15,51.5 A2.5,2.5 0 0 1 1063.65,49 " fill="none" style="stroke:#000000;stroke-width:1.5;"/><line style="stroke:#000000;stroke-width:1.5;" x1="1061.15" x2="1172.7242" y1="71.2969" y2="71.2969"/><text fill="#000000" font-family="sans-serif" font-size="14" font-weight="bold" lengthAdjust="spacing" textLength="98.5742" x="1065.15" y="63.9951">Components</text></g><!--cluster Backend (Flask API)--><g id="cluster_Backend (Flask API)"><path d="M653.95,518 L812.4637,518 A3.75,3.75 0 0 1 814.9637,520.5 L821.9637,540.2969 L1875.8,540.2969 A2.5,2.5 0 0 1 1878.3,542.7969 L1878.3,774.5 A2.5,2.5 0 0 1 1875.8,777 L653.95,777 A2.5,2.5 0 0 1 651.45,774.5 L651.45,520.5 A2.5,2.5 0 0 1 653.95,518 " fill="none" style="stroke:#000000;stroke-width:1.5;"/><line style="stroke:#000000;stroke-width:1.5;" x1="651.45" x2="821.9637" y1="540.2969" y2="540.2969"/><text fill="#000000" font-family="sans-serif" font-size="14" font-weight="bold" lengthAdjust="spacing" textLength="157.5137" x="655.45" y="532.9951">Backend (Flask API)</text></g><!--cluster Database (MongoDB)--><g id="cluster_Database (MongoDB)"><path d="M1543.88,801 L1712.504,801 A3.75,3.75 0 0 1 1715.004,803.5 L1722.004,823.2969 L1721.71,823.2969 A2.5,2.5 0 0 1 1724.21,825.7969 L1724.21,975.5 A2.5,2.5 0 0 1 1721.71,978 L1543.88,978 A2.5,2.5 0 0 1 1541.38,975.5 L1541.38,803.5 A2.5,2.5 0 0 1 1543.88,801 " fill="none" style="stroke:#000000;stroke-width:1.5;"/><line style="stroke:#000000;stroke-width:1.5;" x1="1541.38" x2="1722.004" y1="823.2969" y2="823.2969"/><text fill="#000000" font-family="sans-serif" font-size="14" font-weight="bold" lengthAdjust="spacing" textLength="167.624" x="1545.38" y="815.9951">Database (MongoDB)</text></g><!--cluster JWT Authentication--><g id="cluster_JWT Authentication"><path d="M1551.54,1002 L1704.8515,1002 A3.75,3.75 0 0 1 1707.3515,1004.5 L1714.3515,1024.2969 L1714.06,1024.2969 A2.5,2.5 0 0 1 1716.56,1026.7969 L1716.56,1096.5 A2.5,2.5 0 0 1 1714.06,1099 L1551.54,1099 A2.5,2.5 0 0 1 1549.04,1096.5 L1549.04,1004.5 A2.5,2.5 0 0 1 1551.54,1002 " fill="none" style="stroke:#000000;stroke-width:1.5;"/><line style="stroke:#000000;stroke-width:1.5;" x1="1549.04" x2="1714.3515" y1="1024.2969" y2="1024.2969"/><text fill="#000000" font-family="sans-serif" font-size="14" font-weight="bold" lengthAdjust="spacing" textLength="152.3115" x="1553.04" y="1016.9951">JWT Authentication</text></g><!--cluster Entorno de Ejecuci?n--><g id="cluster_Entorno de Ejecuci&#243;n"><path d="M2041.8,599 L2209.2004,599 A3.75,3.75 0 0 1 2211.7004,601.5 L2218.7004,621.2969 L2218.43,621.2969 A2.5,2.5 0 0 1 2220.93,623.7969 L2220.93,693.5 A2.5,2.5 0 0 1 2218.43,696 L2041.8,696 A2.5,2.5 0 0 1 2039.3,693.5 L2039.3,601.5 A2.5,2.5 0 0 1 2041.8,599 " fill="none" style="stroke:#000000;stroke-width:1.5;"/><line style="stroke:#000000;stroke-width:1.5;" x1="2039.3" x2="2218.7004" y1="621.2969" y2="621.2969"/><text fill="#000000" font-family="sans-serif" font-size="14" font-weight="bold" lengthAdjust="spacing" textLength="166.4004" x="2043.3" y="613.9951">Entorno de Ejecuci&#243;n</text></g><!--entity Home--><g id="elem_Home"><rect fill="#F1F1F1" height="46.2969" rx="2.5" ry="2.5" style="stroke:#181818;stroke-width:0.5;" width="105.2627" x="22" y="305.85"/><rect fill="#F1F1F1" height="10" style="stroke:#181818;stroke-width:0.5;" width="15" x="107.2627" y="310.85"/><rect fill="#F1F1F1" height="2" style="stroke:#181818;stroke-width:0.5;" width="4" x="105.2627" y="312.85"/><rect fill="#F1F1F1" height="2" style="stroke:#181818;stroke-width:0.5;" width="4" x="105.2627" y="316.85"/><text fill="#000000" font-family="sans-serif" font-size="14" lengthAdjust="spacing" textLength="65.2627" x="37" y="338.8451">Home.jsx</text></g><!--entity Login--><g id="elem_Login"><rect fill="#F1F1F1" height="46.2969" rx="2.5" ry="2.5" style="stroke:#181818;stroke-width:0.5;" width="101.9336" x="328.39" y="322.85"/><rect fill="#F1F1F1" height="10" style="stroke:#181818;stroke-width:0.5;" width="15" x="410.3236" y="327.85"/><rect fill="#F1F1F1" height="2" style="stroke:#181818;stroke-width:0.5;" width="4" x="408.3236" y="329.85"/><rect fill="#F1F1F1" height="2" style="stroke:#181818;stroke-width:0.5;" width="4" x="408.3236" y="333.85"/><text fill="#000000" font-family="sans-serif" font-size="14" lengthAdjust="spacing" textLength="61.9336" x="343.39" y="355.8451">Login.jsx</text></g><!--entity Register--><g id="elem_Register"><rect fill="#F1F1F1" height="46.2969" rx="2.5" ry="2.5" style="stroke:#181818;stroke-width:0.5;" width="122.1885" x="318.26" y="419.85"/><rect fill="#F1F1F1" height="10" style="stroke:#181818;stroke-width:0.5;" width="15" x="420.4485" y="424.85"/><rect fill="#F1F1F1" height="2" style="stroke:#181818;stroke-width:0.5;" width="4" x="418.4485" y="426.85"/><rect fill="#F1F1F1" height="2" style="stroke:#181818;stroke-width:0.5;" width="4" x="418.4485" y="430.85"/><text fill="#000000" font-family="sans-serif" font-size="14" lengthAdjust="spacing" textLength="82.1885" x="333.26" y="452.8451">Register.jsx</text></g><!--entity Dashboard--><g id="elem_Dashboard"><rect fill="#F1F1F1" height="46.2969" rx="2.5" ry="2.5" style="stroke:#181818;stroke-width:0.5;" width="161.7002" x="668.28" y="326.85"/><rect fill="#F1F1F1" height="10" style="stroke:#181818;stroke-width:0.5;" width="15" x="809.9802" y="331.85"/><rect fill="#F1F1F1" height="2" style="stroke:#181818;stroke-width:0.5;" width="4" x="807.9802" y="333.85"/><rect fill="#F1F1F1" height="2" style="stroke:#181818;stroke-width:0.5;" width="4" x="807.9802" y="337.85"/><text fill="#000000" font-family="sans-serif" font-size="14" lengthAdjust="spacing" textLength="121.7002" x="683.28" y="359.8451">JobDashboard.jsx</text></g><!--entity JobForm--><g id="elem_JobForm"><rect fill="#F1F1F1" height="46.2969" rx="2.5" ry="2.5" style="stroke:#181818;stroke-width:0.5;" width="121.5117" x="1118.03" y="407.85"/><rect fill="#F1F1F1" height="10" style="stroke:#181818;stroke-width:0.5;" width="15" x="1219.5417" y="412.85"/><rect fill="#F1F1F1" height="2" style="stroke:#181818;stroke-width:0.5;" width="4" x="1217.5417" y="414.85"/><rect fill="#F1F1F1" height="2" style="stroke:#181818;stroke-width:0.5;" width="4" x="1217.5417" y="418.85"/><text fill="#000000" font-family="sans-serif" font-size="14" lengthAdjust="spacing" textLength="81.5117" x="1133.03" y="440.8451">JobForm.jsx</text></g><!--entity JobList--><g id="elem_JobList"><rect fill="#F1F1F1" height="46.2969" rx="2.5" ry="2.5" style="stroke:#181818;stroke-width:0.5;" width="109.9727" x="1123.8" y="326.85"/><rect fill="#F1F1F1" height="10" style="stroke:#181818;stroke-width:0.5;" width="15" x="1213.7727" y="331.85"/><rect fill="#F1F1F1" height="2" style="stroke:#181818;stroke-width:0.5;" width="4" x="1211.7727" y="333.85"/><rect fill="#F1F1F1" height="2" style="stroke:#181818;stroke-width:0.5;" width="4" x="1211.7727" y="337.85"/><text fill="#000000" font-family="sans-serif" font-size="14" lengthAdjust="spacing" textLength="69.9727" x="1138.8" y="359.8451">JobList.jsx</text></g><!--entity UserActions--><g id="elem_UserActions"><rect fill="#F1F1F1" height="46.2969" rx="2.5" ry="2.5" style="stroke:#181818;stroke-width:0.5;" width="147.2148" x="1105.18" y="245.85"/><rect fill="#F1F1F1" height="10" style="stroke:#181818;stroke-width:0.5;" width="15" x="1232.3948" y="250.85"/><rect fill="#F1F1F1" height="2" style="stroke:#181818;stroke-width:0.5;" width="4" x="1230.3948" y="252.85"/><rect fill="#F1F1F1" height="2" style="stroke:#181818;stroke-width:0.5;" width="4" x="1230.3948" y="256.85"/><text fill="#000000" font-family="sans-serif" font-size="14" lengthAdjust="spacing" textLength="107.2148" x="1120.18" y="278.8451">UserActions.jsx</text></g><!--entity BackToHome--><g id="elem_BackToHome"><rect fill="#F1F1F1" height="46.2969" rx="2.5" ry="2.5" style="stroke:#181818;stroke-width:0.5;" width="203.2627" x="1077.15" y="164.85"/><rect fill="#F1F1F1" height="10" style="stroke:#181818;stroke-width:0.5;" width="15" x="1260.4127" y="169.85"/><rect fill="#F1F1F1" height="2" style="stroke:#181818;stroke-width:0.5;" width="4" x="1258.4127" y="171.85"/><rect fill="#F1F1F1" height="2" style="stroke:#181818;stroke-width:0.5;" width="4" x="1258.4127" y="175.85"/><text fill="#000000" font-family="sans-serif" font-size="14" lengthAdjust="spacing" textLength="163.2627" x="1092.15" y="197.8451">BackToHomeButton.jsx</text></g><!--entity LogoutButton--><g id="elem_LogoutButton"><rect fill="#F1F1F1" height="46.2969" rx="2.5" ry="2.5" style="stroke:#181818;stroke-width:0.5;" width="158.9932" x="1099.29" y="83.85"/><rect fill="#F1F1F1" height="10" style="stroke:#181818;stroke-width:0.5;" width="15" x="1238.2832" y="88.85"/><rect fill="#F1F1F1" height="2" style="stroke:#181818;stroke-width:0.5;" width="4" x="1236.2832" y="90.85"/><rect fill="#F1F1F1" height="2" style="stroke:#181818;stroke-width:0.5;" width="4" x="1236.2832" y="94.85"/><text fill="#000000" font-family="sans-serif" font-size="14" lengthAdjust="spacing" textLength="118.9932" x="1114.29" y="116.8451">LogoutButton.jsx</text></g><!--entity Init--><g id="elem_Init"><rect fill="#F1F1F1" height="46.2969" rx="2.5" ry="2.5" style="stroke:#181818;stroke-width:0.5;" width="83.7637" x="1590.42" y="633.85"/><rect fill="#F1F1F1" height="10" style="stroke:#181818;stroke-width:0.5;" width="15" x="1654.1837" y="638.85"/><rect fill="#F1F1F1" height="2" style="stroke:#181818;stroke-width:0.5;" width="4" x="1652.1837" y="640.85"/><rect fill="#F1F1F1" height="2" style="stroke:#181818;stroke-width:0.5;" width="4" x="1652.1837" y="644.85"/><text fill="#000000" font-family="sans-serif" font-size="14" lengthAdjust="spacing" text-decoration="underline" textLength="22.1416" x="1605.42" y="666.8451">init</text><text fill="#000000" font-family="sans-serif" font-size="14" lengthAdjust="spacing" textLength="21.6221" x="1627.5616" y="666.8451">.py</text></g><!--entity AuthRoutes--><g id="elem_AuthRoutes"><rect fill="#F1F1F1" height="46.2969" rx="2.5" ry="2.5" style="stroke:#181818;stroke-width:0.5;" width="211.958" x="1072.81" y="714.85"/><rect fill="#F1F1F1" height="10" style="stroke:#181818;stroke-width:0.5;" width="15" x="1264.768" y="719.85"/><rect fill="#F1F1F1" height="2" style="stroke:#181818;stroke-width:0.5;" width="4" x="1262.768" y="721.85"/><rect fill="#F1F1F1" height="2" style="stroke:#181818;stroke-width:0.5;" width="4" x="1262.768" y="725.85"/><text fill="#000000" font-family="sans-serif" font-size="14" lengthAdjust="spacing" textLength="171.958" x="1087.81" y="747.8451">authenticationRoutes.py</text></g><!--entity JobRoutes--><g id="elem_JobRoutes"><rect fill="#F1F1F1" height="46.2969" rx="2.5" ry="2.5" style="stroke:#181818;stroke-width:0.5;" width="131.5264" x="1113.02" y="552.85"/><rect fill="#F1F1F1" height="10" style="stroke:#181818;stroke-width:0.5;" width="15" x="1224.5464" y="557.85"/><rect fill="#F1F1F1" height="2" style="stroke:#181818;stroke-width:0.5;" width="4" x="1222.5464" y="559.85"/><rect fill="#F1F1F1" height="2" style="stroke:#181818;stroke-width:0.5;" width="4" x="1222.5464" y="563.85"/><text fill="#000000" font-family="sans-serif" font-size="14" lengthAdjust="spacing" textLength="91.5264" x="1128.02" y="585.8451">jobRoutes.py</text></g><!--entity UserRoutes--><g id="elem_UserRoutes"><rect fill="#F1F1F1" height="46.2969" rx="2.5" ry="2.5" style="stroke:#181818;stroke-width:0.5;" width="140.7207" x="1108.42" y="633.85"/><rect fill="#F1F1F1" height="10" style="stroke:#181818;stroke-width:0.5;" width="15" x="1229.1407" y="638.85"/><rect fill="#F1F1F1" height="2" style="stroke:#181818;stroke-width:0.5;" width="4" x="1227.1407" y="640.85"/><rect fill="#F1F1F1" height="2" style="stroke:#181818;stroke-width:0.5;" width="4" x="1227.1407" y="644.85"/><text fill="#000000" font-family="sans-serif" font-size="14" lengthAdjust="spacing" textLength="100.7207" x="1123.42" y="666.8451">userRoutes.py</text></g><!--entity Utils--><g id="elem_Utils"><rect fill="#F1F1F1" height="46.2969" rx="2.5" ry="2.5" style="stroke:#181818;stroke-width:0.5;" width="163.3545" x="667.45" y="616.85"/><rect fill="#F1F1F1" height="10" style="stroke:#181818;stroke-width:0.5;" width="15" x="810.8045" y="621.85"/><rect fill="#F1F1F1" height="2" style="stroke:#181818;stroke-width:0.5;" width="4" x="808.8045" y="623.85"/><rect fill="#F1F1F1" height="2" style="stroke:#181818;stroke-width:0.5;" width="4" x="808.8045" y="627.85"/><text fill="#000000" font-family="sans-serif" font-size="14" lengthAdjust="spacing" textLength="123.3545" x="682.45" y="649.8451">utils.py (Hashing)</text></g><!--entity Run--><g id="elem_Run"><rect fill="#F1F1F1" height="46.2969" rx="2.5" ry="2.5" style="stroke:#181818;stroke-width:0.5;" width="85.124" x="1777.18" y="633.85"/><rect fill="#F1F1F1" height="10" style="stroke:#181818;stroke-width:0.5;" width="15" x="1842.304" y="638.85"/><rect fill="#F1F1F1" height="2" style="stroke:#181818;stroke-width:0.5;" width="4" x="1840.304" y="640.85"/><rect fill="#F1F1F1" height="2" style="stroke:#181818;stroke-width:0.5;" width="4" x="1840.304" y="644.85"/><text fill="#000000" font-family="sans-serif" font-size="14" lengthAdjust="spacing" textLength="45.124" x="1792.18" y="666.8451">run.py</text></g><!--entity UsersDB--><g id="elem_UsersDB"><path d="M1603.38,926.35 C1603.38,916.35 1632.295,916.35 1632.295,916.35 C1632.295,916.35 1661.2101,916.35 1661.2101,926.35 L1661.2101,951.6469 C1661.2101,961.6469 1632.295,961.6469 1632.295,961.6469 C1632.295,961.6469 1603.38,961.6469 1603.38,951.6469 L1603.38,926.35 " fill="#F1F1F1" style="stroke:#181818;stroke-width:0.5;"/><path d="M1603.38,926.35 C1603.38,936.35 1632.295,936.35 1632.295,936.35 C1632.295,936.35 1661.2101,936.35 1661.2101,926.35 " fill="none" style="stroke:#181818;stroke-width:0.5;"/><text fill="#000000" font-family="sans-serif" font-size="14" lengthAdjust="spacing" textLength="37.8301" x="1613.38" y="953.3451">users</text></g><!--entity JobsDB--><g id="elem_JobsDB"><path d="M1607.98,846.35 C1607.98,836.35 1632.2979,836.35 1632.2979,836.35 C1632.2979,836.35 1656.6157,836.35 1656.6157,846.35 L1656.6157,871.6469 C1656.6157,881.6469 1632.2979,881.6469 1632.2979,881.6469 C1632.2979,881.6469 1607.98,881.6469 1607.98,871.6469 L1607.98,846.35 " fill="#F1F1F1" style="stroke:#181818;stroke-width:0.5;"/><path d="M1607.98,846.35 C1607.98,856.35 1632.2979,856.35 1632.2979,856.35 C1632.2979,856.35 1656.6157,856.35 1656.6157,846.35 " fill="none" style="stroke:#181818;stroke-width:0.5;"/><text fill="#000000" font-family="sans-serif" font-size="14" lengthAdjust="spacing" textLength="28.6357" x="1617.98" y="873.3451">jobs</text></g><!--entity JWT--><g id="elem_JWT"><rect fill="#F1F1F1" height="46.2969" rx="2.5" ry="2.5" style="stroke:#181818;stroke-width:0.5;" width="66.5234" x="1599.04" y="1036.85"/><rect fill="#F1F1F1" height="10" style="stroke:#181818;stroke-width:0.5;" width="15" x="1645.5634" y="1041.85"/><rect fill="#F1F1F1" height="2" style="stroke:#181818;stroke-width:0.5;" width="4" x="1643.5634" y="1043.85"/><rect fill="#F1F1F1" height="2" style="stroke:#181818;stroke-width:0.5;" width="4" x="1643.5634" y="1047.85"/><text fill="#000000" font-family="sans-serif" font-size="14" lengthAdjust="spacing" textLength="26.5234" x="1614.04" y="1069.8451">JWT</text></g><!--entity Anaconda--><g id="elem_Anaconda"><rect fill="#F1F1F1" height="46.2969" rx="2.5" ry="2.5" style="stroke:#181818;stroke-width:0.5;" width="109.6309" x="2075.3" y="633.85"/><rect fill="#F1F1F1" height="10" style="stroke:#181818;stroke-width:0.5;" width="15" x="2164.9309" y="638.85"/><rect fill="#F1F1F1" height="2" style="stroke:#181818;stroke-width:0.5;" width="4" x="2162.9309" y="640.85"/><rect fill="#F1F1F1" height="2" style="stroke:#181818;stroke-width:0.5;" width="4" x="2162.9309" y="644.85"/><text fill="#000000" font-family="sans-serif" font-size="14" lengthAdjust="spacing" textLength="69.6309" x="2090.3" y="666.8451">Anaconda</text></g><!--link Home to Login--><g id="link_Home_Login"><path d="M127.61,315.78 C137.4,313.79 147.6,312.05 157.26,311 C215.14,304.69 231.04,300.27 288.26,311 C301.62,313.5 309.9427,315.7949 322.7327,320.6649 " fill="none" id="Home-to-Login" style="stroke:#181818;stroke-width:1;"/><polygon fill="#181818" points="328.34,322.8,321.3525,315.8592,323.6673,321.0208,318.5057,323.3356,328.34,322.8" style="stroke:#181818;stroke-width:1;"/><text fill="#000000" font-family="sans-serif" font-size="13" lengthAdjust="spacing" textLength="60.709" x="192.76" y="301.0669">Ir a Login</text></g><!--link Login to Home--><g id="link_Login_Home"><path d="M328.27,344.31 C283.44,342.66 215.93,339.84 157.26,336 C147.61,335.37 143.3095,335.0753 133.4095,334.2553 " fill="none" id="Login-to-Home" style="stroke:#181818;stroke-width:1;"/><polygon fill="#181818" points="127.43,333.76,136.0691,338.4893,132.4129,334.1727,136.7295,330.5166,127.43,333.76" style="stroke:#181818;stroke-width:1;"/><text fill="#000000" font-family="sans-serif" font-size="13" lengthAdjust="spacing" textLength="129.3906" x="158.26" y="332.0669">BackToHomeButton</text></g><!--link Home to Register--><g id="link_Home_Register"><path d="M122.26,352.44 C133.6,357.82 145.77,363.32 157.26,368 C210.76,389.77 267.4877,408.7359 312.3377,422.8759 " fill="none" id="Home-to-Register" style="stroke:#181818;stroke-width:1;"/><polygon fill="#181818" points="318.06,424.68,310.6792,418.159,313.2914,423.1766,308.2738,425.7887,318.06,424.68" style="stroke:#181818;stroke-width:1;"/><text fill="#000000" font-family="sans-serif" font-size="13" lengthAdjust="spacing" textLength="79.5171" x="183.26" y="364.0669">Ir a Register</text></g><!--link Register to Home--><g id="link_Register_Home"><path d="M318.1,456.09 C271.56,463.03 206.93,465.55 157.26,440 C121.31,421.51 99.742,384.518 87.542,357.798 " fill="none" id="Register-to-Home" style="stroke:#181818;stroke-width:1;"/><polygon fill="#181818" points="85.05,352.34,85.1494,362.1884,87.1267,356.8883,92.4267,358.8656,85.05,352.34" style="stroke:#181818;stroke-width:1;"/><text fill="#000000" font-family="sans-serif" font-size="13" lengthAdjust="spacing" textLength="129.3906" x="158.26" y="436.0669">BackToHomeButton</text></g><!--link Login to Dashboard--><g id="link_Login_Dashboard"><path d="M430.72,346.55 C491.9,347.21 589.8704,348.2744 662.0704,349.0644 " fill="none" id="Login-to-Dashboard" style="stroke:#181818;stroke-width:1;"/><polygon fill="#181818" points="668.07,349.13,659.1143,345.0318,663.0703,349.0753,659.0268,353.0313,668.07,349.13" style="stroke:#181818;stroke-width:1;"/><text fill="#000000" font-family="sans-serif" font-size="13" lengthAdjust="spacing" textLength="163.3252" x="471.45" y="344.0669">Redirecci&#243;n a Dashboard</text></g><!--reverse link Dashboard to JobForm--><g id="link_Dashboard_JobForm"><path d="M836.293,369.8848 C846.503,372.1048 850.96,373.02 860.81,375 C949.97,392.94 1053.88,410.7 1117.74,421.26 " fill="none" id="Dashboard-backto-JobForm" style="stroke:#181818;stroke-width:1;"/><polygon fill="#181818" points="830.43,368.61,838.3746,374.4309,835.3158,369.6723,840.0744,366.6136,830.43,368.61" style="stroke:#181818;stroke-width:1;"/><text fill="#000000" font-family="sans-serif" font-size="13" lengthAdjust="spacing" textLength="143.3745" x="880.31" y="371.0669">Formulario de Empleo</text></g><!--reverse link Dashboard to JobList--><g id="link_Dashboard_JobList"><path d="M836.32,350 C921.93,350 1049.26,350 1123.4,350 " fill="none" id="Dashboard-backto-JobList" style="stroke:#181818;stroke-width:1;"/><polygon fill="#181818" points="830.32,350,839.32,354,835.32,350,839.32,346,830.32,350" style="stroke:#181818;stroke-width:1;"/><text fill="#000000" font-family="sans-serif" font-size="13" lengthAdjust="spacing" textLength="180.8066" x="861.81" y="346.0669">Lista y Edicci&#243;n de Empleos</text></g><!--reverse link Dashboard to UserActions--><g id="link_Dashboard_UserActions"><path d="M836.293,330.1152 C846.503,327.8952 850.96,326.98 860.81,325 C944.22,308.22 1040.53,291.59 1104.9,280.87 " fill="none" id="Dashboard-backto-UserActions" style="stroke:#181818;stroke-width:1;"/><polygon fill="#181818" points="830.43,331.39,840.0744,333.3864,835.3158,330.3277,838.3746,325.5691,830.43,331.39" style="stroke:#181818;stroke-width:1;"/><text fill="#000000" font-family="sans-serif" font-size="13" lengthAdjust="spacing" textLength="135.2939" x="884.31" y="288.0669">Acciones del Usuario</text></g><!--link Dashboard to Home--><g id="link_Dashboard_Home"><path d="M668.04,329.65 C657.13,327.21 646.04,324.92 635.45,323 C482.46,295.29 443.45,289.57 288.26,280 C230.15,276.42 213.37,264.45 157.26,280 C138.94,285.08 125.5771,292.1143 110.9371,302.0343 " fill="none" id="Dashboard-to-Home" style="stroke:#181818;stroke-width:1;"/><polygon fill="#181818" points="105.97,305.4,115.6645,303.6629,110.1093,302.5953,111.1769,297.0401,105.97,305.4" style="stroke:#181818;stroke-width:1;"/><text fill="#000000" font-family="sans-serif" font-size="13" lengthAdjust="spacing" textLength="88.2832" x="335.36" y="279.0669">LogoutButton</text></g><!--link Login to AuthRoutes--><g id="link_Login_AuthRoutes"><path d="M408.22,369.62 C418.82,379.19 430.68,390.65 440.45,402 C544.54,522.88 505.19,618.43 643.45,698 C775.98,774.27 952.6617,769.7961 1066.4117,756.3161 " fill="none" id="Login-to-AuthRoutes" style="stroke:#181818;stroke-width:1;"/><polygon fill="#181818" points="1072.37,755.61,1062.9618,752.6969,1067.4047,756.1984,1063.9033,760.6413,1072.37,755.61" style="stroke:#181818;stroke-width:1;"/><text fill="#000000" font-family="sans-serif" font-size="13" lengthAdjust="spacing" textLength="35.2993" x="731.63" y="694.0669">Login</text></g><!--link Register to AuthRoutes--><g id="link_Register_AuthRoutes"><path d="M383.82,466.63 C394.05,533.24 426.24,720.28 470.45,761 C654.8,930.82 988.965,817.672 1119.365,763.772 " fill="none" id="Register-to-AuthRoutes" style="stroke:#181818;stroke-width:1;"/><polygon fill="#181818" points="1124.91,761.48,1115.0645,761.2213,1120.2892,763.39,1118.1205,768.6146,1124.91,761.48" style="stroke:#181818;stroke-width:1;"/><text fill="#000000" font-family="sans-serif" font-size="13" lengthAdjust="spacing" textLength="54.1074" x="722.13" y="839.0669">Register</text></g><!--link Dashboard to JobRoutes--><g id="link_Dashboard_JobRoutes"><path d="M777.54,373.62 C799.21,391.58 830.72,416.16 860.81,434 C866.92,437.63 1030.8578,510.6616 1119.4378,550.0616 " fill="none" id="Dashboard-to-JobRoutes" style="stroke:#181818;stroke-width:1;"/><polygon fill="#181818" points="1124.92,552.5,1118.3224,545.1876,1120.3515,550.468,1115.0711,552.4971,1124.92,552.5" style="stroke:#181818;stroke-width:1;"/><text fill="#000000" font-family="sans-serif" font-size="13" lengthAdjust="spacing" textLength="68.5801" x="917.81" y="430.0669">CRUD Jobs</text></g><!--link Dashboard to UserRoutes--><g id="link_Dashboard_UserRoutes"><path d="M757.96,373.64 C772.29,413.45 806.36,494.11 860.81,541 C898.66,573.6 1020.936,612.5639 1102.236,636.0639 " fill="none" id="Dashboard-to-UserRoutes" style="stroke:#181818;stroke-width:1;"/><polygon fill="#181818" points="1108,637.73,1100.4647,631.3881,1103.1966,636.3416,1098.2432,639.0735,1108,637.73" style="stroke:#181818;stroke-width:1;"/><text fill="#000000" font-family="sans-serif" font-size="13" lengthAdjust="spacing" textLength="127.937" x="888.31" y="537.0669">Update/Delete User</text></g><!--link AuthRoutes to Init--><g id="link_AuthRoutes_Init"><path d="M1285.24,722.18 C1352.43,711.72 1441.24,697.17 1519.42,682 C1542.86,677.45 1563.063,673.0165 1584.123,668.1665 " fill="none" id="AuthRoutes-to-Init" style="stroke:#181818;stroke-width:1;"/><polygon fill="#181818" points="1589.97,666.82,1580.3019,664.9418,1585.0975,667.9421,1582.0972,672.7378,1589.97,666.82" style="stroke:#181818;stroke-width:1;"/><text fill="#000000" font-family="sans-serif" font-size="13" lengthAdjust="spacing" textLength="42.9229" x="1406.92" y="678.0669">import</text></g><!--link JobRoutes to Init--><g id="link_JobRoutes_Init"><path d="M1244.77,585.6 C1313.27,595.98 1424.23,613.53 1519.42,632 C1542.86,636.55 1563.063,640.9835 1584.123,645.8335 " fill="none" id="JobRoutes-to-Init" style="stroke:#181818;stroke-width:1;"/><polygon fill="#181818" points="1589.97,647.18,1582.0972,641.2622,1585.0975,646.0579,1580.3019,649.0582,1589.97,647.18" style="stroke:#181818;stroke-width:1;"/><text fill="#000000" font-family="sans-serif" font-size="13" lengthAdjust="spacing" textLength="42.9229" x="1406.92" y="598.0669">import</text></g><!--link UserRoutes to Init--><g id="link_UserRoutes_Init"><path d="M1249.34,657 C1344.58,657 1506.56,657 1584.03,657 " fill="none" id="UserRoutes-to-Init" style="stroke:#181818;stroke-width:1;"/><polygon fill="#181818" points="1590.03,657,1581.03,653,1585.03,657,1581.03,661,1590.03,657" style="stroke:#181818;stroke-width:1;"/><text fill="#000000" font-family="sans-serif" font-size="13" lengthAdjust="spacing" textLength="42.9229" x="1406.92" y="653.0669">import</text></g><!--link Utils to AuthRoutes--><g id="link_Utils_AuthRoutes"><path d="M815.83,663.56 C830.52,668.38 846.11,673.15 860.81,677 C900.04,687.28 990.3466,704.3679 1066.5566,718.2079 " fill="none" id="Utils-to-AuthRoutes" style="stroke:#181818;stroke-width:1;"/><polygon fill="#181818" points="1072.46,719.28,1064.3196,713.7362,1067.5405,718.3866,1062.8901,721.6075,1072.46,719.28" style="stroke:#181818;stroke-width:1;"/><text fill="#000000" font-family="sans-serif" font-size="13" lengthAdjust="spacing" textLength="42.9229" x="930.81" y="673.0669">import</text></g><!--link Utils to UserRoutes--><g id="link_Utils_UserRoutes"><path d="M831.07,643.22 C911.1,646.4 1026.2847,650.9821 1102.1447,653.9921 " fill="none" id="Utils-to-UserRoutes" style="stroke:#181818;stroke-width:1;"/><polygon fill="#181818" points="1108.14,654.23,1099.3057,649.8763,1103.1439,654.0318,1098.9885,657.87,1108.14,654.23" style="stroke:#181818;stroke-width:1;"/><text fill="#000000" font-family="sans-serif" font-size="13" lengthAdjust="spacing" textLength="42.9229" x="930.81" y="641.0669">import</text></g><!--link Init to Run--><g id="link_Init_Run"><path d="M1674.45,657 C1704.86,657 1740.13,657 1770.74,657 " fill="none" id="Init-to-Run" style="stroke:#181818;stroke-width:1;"/><polygon fill="#181818" points="1776.74,657,1767.74,653,1771.74,657,1767.74,661,1776.74,657" style="stroke:#181818;stroke-width:1;"/></g><!--link AuthRoutes to UsersDB--><g id="link_AuthRoutes_UsersDB"><path d="M1192.79,761.37 C1215.93,800.39 1268.28,877.85 1336.42,912 C1425.35,956.57 1542.3489,949.8717 1597.0889,943.6117 " fill="none" id="AuthRoutes-to-UsersDB" style="stroke:#181818;stroke-width:1;"/><polygon fill="#181818" points="1603.05,942.93,1593.6538,939.9785,1598.0824,943.4981,1594.5628,947.9267,1603.05,942.93" style="stroke:#181818;stroke-width:1;"/><text fill="#000000" font-family="sans-serif" font-size="13" lengthAdjust="spacing" textLength="166.0039" x="1344.92" y="908.0669">Guardar datos de usuario</text></g><!--link AuthRoutes to JWT--><g id="link_AuthRoutes_JWT"><path d="M1189.01,761.53 C1208.71,808.72 1259.5,915.27 1336.42,972 C1418.11,1032.25 1535.0013,1050.9279 1592.9213,1056.8679 " fill="none" id="AuthRoutes-to-JWT" style="stroke:#181818;stroke-width:1;"/><polygon fill="#181818" points="1598.89,1057.48,1590.345,1052.5827,1593.9161,1056.9699,1589.5289,1060.5409,1598.89,1057.48" style="stroke:#181818;stroke-width:1;"/><text fill="#000000" font-family="sans-serif" font-size="13" lengthAdjust="spacing" textLength="96.7573" x="1379.92" y="968.0669">Generar Token</text></g><!--link JobRoutes to JobsDB--><g id="link_JobRoutes_JobsDB"><path d="M1244.98,577.03 C1275,581.13 1308.33,591.52 1328.42,616 C1345.51,636.84 1320.71,715.1 1336.42,737 C1353.37,760.63 1535.2742,825.6155 1602.1342,848.9155 " fill="none" id="JobRoutes-to-JobsDB" style="stroke:#181818;stroke-width:1;"/><polygon fill="#181818" points="1607.8,850.89,1600.6176,844.1511,1603.0785,849.2446,1597.985,851.7055,1607.8,850.89" style="stroke:#181818;stroke-width:1;"/><text fill="#000000" font-family="sans-serif" font-size="13" lengthAdjust="spacing" textLength="155.2891" x="1350.42" y="733.0669">CRUD datos de trabajos</text></g><!--link UserRoutes to UsersDB--><g id="link_UserRoutes_UsersDB"><path d="M1249.3,658.54 C1278.21,663 1309.4,673.55 1328.42,697 C1348.88,722.24 1315.87,817.83 1336.42,843 C1389.58,908.14 1441.59,859.16 1519.42,891 C1526.04,893.71 1526.95,895.86 1533.38,899 C1556.32,910.19 1577.616,918.8764 1597.406,926.4464 " fill="none" id="UserRoutes-to-UsersDB" style="stroke:#181818;stroke-width:1;"/><polygon fill="#181818" points="1603.01,928.59,1596.0331,921.6386,1598.34,926.8036,1593.1749,929.1106,1603.01,928.59" style="stroke:#181818;stroke-width:1;"/><text fill="#000000" font-family="sans-serif" font-size="13" lengthAdjust="spacing" textLength="181.3779" x="1337.42" y="839.0669">Actualizar/Eliminar usuarios</text></g><!--link Run to Anaconda--><g id="link_Run_Anaconda"><path d="M1862.65,657 C1917.65,657 2008.29,657 2068.84,657 " fill="none" id="Run-to-Anaconda" style="stroke:#181818;stroke-width:1;"/><polygon fill="#181818" points="2074.84,657,2065.84,653,2069.84,657,2065.84,661,2074.84,657" style="stroke:#181818;stroke-width:1;"/><text fill="#000000" font-family="sans-serif" font-size="13" lengthAdjust="spacing" textLength="127.9434" x="1895.3" y="653.0669">Ejecutar el Servidor</text></g><!--SRC=[VLHBRjim4Dth50GtJHPEza5Hm8wT9a4A5AwDB0rQcjfqPD8WgQ9faLFr2BrOPoYHecYbtiYSUUznEByQlZlcD3DojtUiaWPA9xKgYfCeNyGE6BypMZbG5RjOWYZTrS5USlQxOFWhzV6a5IZ7-Bq-0hf-SYOieqCEUD8xgIB2dtB84dRIEZ0H5Gmvy55lvyBkjrgOAeAZnQDZ-BU1PaFKvs9tsXoZJdT-1_g40QLGEez1rnRCrAVIHdXY6wFCCEILfjpD6kTqdwpUCKR3LEh6PPJKw4blnLjIKrBq9RshXNrXqwyFOpNTRAIIRhEvEhrwqGSyvHZHk3t-aQMWTotnKh01FqLVQybP1xqTGX-38KSscBCXT1qjPrWdQuAnYtli1Qbsbos1p3dMD2e8BXirICvSEB4L5jZ55wrsUZwBkQc2nuTbOpXsFily-40R7aRULF_nUULJqwTj9FS8QldFgm5vePmsIhCAsE80PLFAlt_6-5CbIgqgqHQYEv3I1vogMfHuArXKKSwGMCt2c1VKPsmo-TJEABjX_C4mqPvuxmsp6G71m8kMI22FlZblRLv4-lzXlLGSRm8kmMyg_tYyElfuqSC-JYPXbeb2twOMHhQvEvvgq2DmccU2qrUmLxQeP7TDPDcSbimrKQTbp6wDleRkJ2dfYzCvvLbng3OGwuAnT5ER9AMVi4vCvgaT8leQ3SE9uqUWs-LwxlisH_MJHx3r2TiThkTGWmFlu-ztLmWz2OSKQQEGbiI-DOuNVHnZtkJ-KJVD-SYZp_t3XmI_r_EjZGjXh1HXQxuodEZi9TqQ8BtFMF5A6De6cfB0cj036OSM0U51WK7yIgDwdeDsVyIoH4rdSDCSg1Uph2I1O4ysefQ_XBbUrF8e5LxInM9zhVeDCYWIlhzDOxSsICj37GeWxXkO7xBIXly3]--></g></svg>